
[center]
[img]http://img819.imageshack.us/img819/4408/christmasmagic300x254.jpg[/img]



Genre : Drama / Fantasy

Plot : Carrie Bishop (Booth) lives for her successful career as an event planner in New York City, but her life changes in an instant after a nasty car accident in a snowstorm. Carrie suffers head trauma and regains consciousness in Central Park with an older man, Henry (Derek McGrath, "Little Mosque on the Prairie"). Henry is Carrie's spirit guide and is there to help her "pass over" to Heaven. But before Carrie can move on, she must fulfill one last task on Earth - a type of Angel Duty. Henry tells Carrie that she must help guide a widowed, young restaurant owner, Scott Walker, (McGillion) who has recently considered suicide because his beloved restaurant/catering business is utterly failing. Carrie befriends Scott and his 8-year-old daughter and immediately displays a knack for promoting the restaurant. But time isn't on Carrie's side on this mission. She has until midnight Christmas Eve to turn the eatery around


General 
Complete name : Christmas.Magic.2011.HDTVRip.XviD-NoGRP.avi 
Format : AVI 
Format/Info : Audio Video Interleave 
File size : 700 MiB 
Duration : 1h 23mn 
Overall bit rate : 1 172 Kbps 

Video 
ID : 0 
Format : MPEG-4 Visual 
Format profile : Advanced Simple@L5 
Format settings, BVOP : 2 
Format settings, QPel : No 
Format settings, GMC : No warppoints 
Format settings, Matrix : Default (H.263) 
Codec ID : XVID 
Codec ID/Hint : XviD 
Duration : 1h 23mn 
Bit rate : 1 030 Kbps 
Width : 624 pixels 
Height : 352 pixels 
Display aspect ratio : 16:9 
Frame rate : 29.970 fps 
Color space : YUV 
Chroma subsampling : 4:2:0 
Bit depth : 8 bits 
Scan type : Progressive 
Compression mode : Lossy 
Bits/(Pixel*Frame) : 0.156 
Stream size : 615 MiB (88%) 
Writing library : XviD 63 

Audio 
ID : 1 
Format : MPEG Audio 
Format version : Version 1 
Format profile : Layer 3 
Codec ID : 55 
Codec ID/Hint : MP3 
Duration : 1h 23mn 
Bit rate mode : Constant 
Bit rate : 128 Kbps 
Channel(s) : 2 channels 
Sampling rate : 48.0 KHz 
Compression mode : Lossy 
Stream size : 76.4 MiB (11%) 
Alignment : Split accross interleaves 
Interleave, duration : 24 ms (0.72 video frame)
 
http://www.imdb.com/title/tt2112127/


[img]http://img819.imageshack.us/img819/3203/vlcsnap2011122009h09m36.png[/img]
[img]http://img854.imageshack.us/img854/3360/vlcsnap2011122009h09m51.png[/img]
[img]http://img641.imageshack.us/img641/7503/vlcsnap2011122009h12m00.png[/img]
[img]http://img10.imageshack.us/img10/6055/vlcsnap2011122009h12m23.png[/img]
[img]http://img853.imageshack.us/img853/9220/vlcsnap2011122009h09m15.png[/img][/center]